<svg id="light" enable-background="new 0 0 24 24" height="512" viewBox="0 0 24 24" width="512" xmlns="http://www.w3.org/2000/svg"><path d="m3.5 22h-3c-.276 0-.5-.224-.5-.5v-9c0-.276.224-.5.5-.5 3.401 0 5.198 1.146 5.273 1.195.179.117.264.335.212.542l-2 7.886c-.057.222-.256.377-.485.377zm-2.5-1h2.111l1.809-7.13c-.563-.269-1.889-.786-3.92-.861z"/><path d="m13 24c-2.36 0-6.923-1.984-9.434-3.168-.25-.117-.356-.416-.239-.665.117-.251.416-.356.666-.239 1.96.924 6.76 3.072 9.007 3.072 2.432 0 8.165-2.857 9.814-3.706-.26-.34-.797-.794-1.814-.794-.923 0-2.093.369-3.225.727-1.203.379-2.448.773-3.525.773-2.064 0-4.805-.988-4.921-1.03-.259-.094-.393-.381-.299-.641.095-.259.381-.392.641-.299.026.01 2.692.97 4.579.97.923 0 2.093-.369 3.225-.727 1.203-.379 2.448-.773 3.525-.773 2.333 0 2.949 1.767 2.974 1.842.077.231-.023.484-.239.6-.311.164-7.646 4.058-10.735 4.058z"/><path d="m16.5 19.59c-.276 0-.5-.224-.5-.5v-.5c0-.698-.47-1.296-1.144-1.452l-9.654-2.331c-.269-.065-.434-.335-.369-.604.065-.27.34-.429.603-.369l9.65 2.33c1.126.263 1.914 1.261 1.914 2.426v.5c0 .276-.224.5-.5.5z"/><path d="m14.5 12c-.276 0-.5-.224-.5-.5v-7c0-.276.224-.5.5-.5s.5.224.5.5v7c0 .276-.224.5-.5.5z"/><path d="m16.5 5h-2c-.276 0-.5-.224-.5-.5v-1c0-1.93 1.57-3.5 3.5-3.5h2c.276 0 .5.224.5.5v1c0 1.93-1.57 3.5-3.5 3.5zm-1.5-1h1.5c1.378 0 2.5-1.121 2.5-2.5v-.5h-1.5c-1.378 0-2.5 1.121-2.5 2.5z"/><path d="m14.5 9h-2c-2.481 0-4.5-2.019-4.5-4.5v-1c0-.276.224-.5.5-.5h2c2.481 0 4.5 2.019 4.5 4.5v1c0 .276-.224.5-.5.5zm-5.5-5v.5c0 1.93 1.57 3.5 3.5 3.5h1.5v-.5c0-1.93-1.57-3.5-3.5-3.5z"/></svg>