<svg id="Capa_1" enable-background="new 0 0 511.693 511.693" height="512" viewBox="0 0 511.693 511.693" width="512" xmlns="http://www.w3.org/2000/svg"><g><path d="m465.703 25.383h-419.713c-25.359 0-45.99 20.632-45.99 45.991v296.371c0 25.359 20.631 45.99 45.99 45.99h139.11v31.296l-26.889 26.28h-11.476c-4.143 0-7.5 3.358-7.5 7.5s3.357 7.5 7.5 7.5h218.881c4.143 0 7.5-3.358 7.5-7.5s-3.357-7.5-7.5-7.5h-10.132l-26.889-26.28v-31.296h137.109c25.359 0 45.99-20.631 45.99-45.99v-296.371c-.001-25.359-20.632-45.991-45.991-45.991zm-419.713 15h419.713c17.088 0 30.99 13.902 30.99 30.99v275.296h-481.693v-275.295c0-17.088 13.902-30.991 30.99-30.991zm419.713 358.351h-220.235c-4.143 0-7.5 3.358-7.5 7.5s3.357 7.5 7.5 7.5h68.126v34.453c0 2.019.814 3.953 2.258 5.364l18.171 17.759h-154.352l18.171-17.759c1.443-1.411 2.258-3.345 2.258-5.364v-34.453h13.406c4.143 0 7.5-3.358 7.5-7.5s-3.357-7.5-7.5-7.5h-167.516c-17.088 0-30.99-13.902-30.99-30.99v-6.075h481.693v6.075c0 17.088-13.902 30.99-30.99 30.99z"/><path d="m256.347 368.935c-4.143 0-7.5 3.358-7.5 7.5v3.34c0 4.142 3.357 7.5 7.5 7.5s7.5-3.358 7.5-7.5v-3.34c0-4.142-3.358-7.5-7.5-7.5z"/><path d="m165.875 303.884c4.249 4.25 9.899 6.591 15.91 6.591s11.661-2.341 15.909-6.59c4.25-4.25 6.591-9.9 6.591-15.91s-2.341-11.66-6.59-15.91l-60.875-60.875 60.874-60.874c4.25-4.25 6.591-9.9 6.591-15.91s-2.341-11.66-6.59-15.909c-4.249-4.25-9.899-6.591-15.91-6.591s-11.661 2.34-15.91 6.59l-76.783 76.784c-4.25 4.25-6.591 9.9-6.591 15.91s2.341 11.66 6.59 15.91zm-66.177-97.996 76.784-76.785c1.416-1.417 3.3-2.196 5.303-2.196s3.887.78 5.304 2.197c1.416 1.417 2.196 3.3 2.196 5.303s-.78 3.886-2.197 5.303l-66.178 66.178c-2.929 2.929-2.929 7.678 0 10.606l66.179 66.178c1.416 1.417 2.196 3.3 2.196 5.303s-.78 3.886-2.197 5.304c-1.416 1.417-3.3 2.196-5.303 2.196s-3.887-.78-5.303-2.197l-76.785-76.785c-1.416-1.417-2.196-3.3-2.196-5.303s.78-3.885 2.197-5.302z"/><path d="m308.191 287.975c0 6.01 2.341 11.66 6.59 15.909 4.249 4.25 9.899 6.591 15.91 6.591s11.661-2.341 15.91-6.59l26.771-26.772c2.929-2.929 2.929-7.678 0-10.606-2.93-2.929-7.678-2.929-10.607 0l-26.771 26.772c-1.416 1.417-3.3 2.196-5.303 2.196s-3.887-.78-5.304-2.197c-1.416-1.417-2.196-3.3-2.196-5.303s.78-3.886 2.197-5.303l66.178-66.178c2.929-2.929 2.929-7.678 0-10.606l-66.179-66.178c-1.416-1.417-2.196-3.3-2.196-5.303s.78-3.886 2.197-5.304c1.416-1.417 3.3-2.196 5.303-2.196s3.887.78 5.303 2.197l76.785 76.785c1.416 1.417 2.196 3.3 2.196 5.303s-.78 3.886-2.197 5.303l-26.863 26.864c-2.929 2.929-2.929 7.678 0 10.606 2.93 2.929 7.678 2.929 10.607 0l26.862-26.863c4.25-4.25 6.591-9.9 6.591-15.91s-2.341-11.66-6.59-15.91l-76.784-76.784c-4.249-4.25-9.899-6.591-15.91-6.591s-11.661 2.34-15.909 6.59c-4.25 4.25-6.591 9.9-6.591 15.91s2.341 11.66 6.59 15.91l60.875 60.875-60.874 60.874c-4.25 4.249-6.591 9.899-6.591 15.909z"/><path d="m234.16 306.104c1.573.342 3.185.516 4.789.516 10.503 0 19.744-7.457 21.974-17.732l33.824-155.883c1.274-5.873.186-11.891-3.066-16.946-3.252-5.054-8.277-8.539-14.149-9.813-5.874-1.274-11.892-.187-16.947 3.065-5.054 3.252-8.539 8.278-9.813 14.151l-7.726 35.605c-.879 4.048 1.69 8.042 5.738 8.92 4.055.878 8.042-1.691 8.92-5.739l7.726-35.605c.425-1.958 1.587-3.633 3.272-4.718 1.685-1.083 3.688-1.447 5.648-1.021 1.957.425 3.633 1.586 4.717 3.271s1.447 3.691 1.022 5.648l-33.824 155.883c-.744 3.426-3.82 5.913-7.315 5.913-.535 0-1.074-.058-1.605-.174-1.957-.425-3.633-1.586-4.717-3.271s-1.447-3.691-1.022-5.648l19.163-88.315c.879-4.048-1.69-8.042-5.738-8.92-4.053-.876-8.042 1.692-8.92 5.739l-19.163 88.315c-1.274 5.873-.186 11.891 3.066 16.946 3.251 5.055 8.276 8.54 14.146 9.813z"/></g></svg>